<?xml version="1.0" encoding="UTF-8"?>
<svg id="Layer_1" xmlns="http://www.w3.org/2000/svg" version="1.1" viewBox="0 0 61.03 59.73">
  <!-- Generator: Adobe Illustrator 29.6.0, SVG Export Plug-In . SVG Version: 2.1.1 Build 207)  -->
  <defs>
    <style>
      .st0 {
        fill: #0069da;
      }

      .st1 {
        fill: #ff4649;
      }

      .st2 {
        fill: #86da2f;
      }

      .st3 {
        fill: #ffcb12;
      }

      .st4 {
        fill: #24c2ff;
      }
    </style>
  </defs>
  <path id="path22" class="st2" d="M56.11,33.73c2.6-.2,4.7,1.5,4.9,4.1.2,2.7-1.7,4.9-4.3,5.1-2.5.2-4.7-1.7-4.9-4.2-.2-2.7,1.6-4.7,4.3-5Z"/>
  <path id="path24" class="st4" d="M24.51,55.03c0-2.6,2-4.6,4.4-4.6s4.7,2.2,4.7,4.7-2,4.5-4.3,4.6c-2.9,0-4.8-1.8-4.8-4.7Z"/>
  <path id="path26" class="st3" d="M31.61,25.83c-.4.2-.6-.1-.7-.4-3.7-6.9-2.6-15.6,3.9-20.8,1.7-1.4,4.9-1.7,6.3-.3.6.5.7,1.1.8,1.8.2,1.5.5,3,1.5,4.2,1.1,1.3,2.5,1.8,4.1,1.7,1.4,0,2.8-.2,3.7,1.4.5.9.3,4.4-.5,5.1-.4.3-.7.1-1,0-2.3-.9-4.7-.9-7.1-.5-.8.1-1.2-.1-1.2-1-.1-1.5-.4-2.9-1.2-4.2-1.5-2.7-4.3-2.8-6.1-.3-1.5,2-1.9,4.4-2.3,6.8-.4,2.1-.3,4.3-.2,6.5,0,0-.1,0,0,0Z"/>
  <path id="path28" class="st2" d="M34.11,27.33c-.2-.3-.1-.6.2-.8,5.7-5.2,14.2-6.2,20.8-1.1,1.7,1.4,2.8,4.3,1.9,6-.4.7-.9,1-1.5,1.2-1.4.6-2.7,1.2-3.6,2.5-.9,1.3-1.1,2.8-.7,4.4.3,1.3.8,2.7-.5,3.9-.7.7-4.1,1.3-5,.7-.4-.3-.3-.6-.2-1,.3-2.5-.3-4.8-1.2-7-.3-.8-.2-1.2.6-1.4,1.4-.4,2.7-1.1,3.7-2.1,2.2-2.1,1.7-4.8-1.2-6-2.3-1-4.7-.8-7-.6-2.2.1-4.3.7-6.3,1.3Z"/>
  <path id="path30" class="st4" d="M32.81,29.93c.3-.3.5-.2.8,0,6.6,4,10,11.9,7,19.6-.8,2-3.4,4-5.3,3.5-.8-.2-1.2-.6-1.6-1.1-.9-1.2-1.9-2.3-3.4-2.8-1.6-.5-3-.2-4.4.6-1.2.7-2.4,1.6-3.9.7-.9-.5-2.4-3.6-2.1-4.6.2-.4.6-.4,1-.4,2.5-.4,4.5-1.6,6.4-3.2.6-.5,1.1-.5,1.6.2.8,1.2,1.8,2.2,3.1,2.9,2.6,1.5,5.1.2,5.4-2.8.3-2.5-.6-4.7-1.4-6.9-.9-2-2-3.9-3.2-5.7Z"/>
  <path id="path32" class="st0" d="M29.61,30.53c-.4,2-1.3,3.9-2.5,5.6-3.6,5.4-8.8,7.6-15.2,7-2.3-.2-4.2-2.1-4.4-4-.1-.8.1-1.4.6-2,.7-.9,1.3-1.7,1.6-2.8.6-2.2-.2-4-1.8-5.6-2.2-2.2-1.9-4.2.7-5.8.3-.2.7-.4,1.1-.6.6-.3,1.1-.3,1.3.4.9,2.3,2.7,4,4.7,5.4.7.6.7,1,.1,1.7-1.2,1.3-1.9,2.9-2,4.7-.2,2.2,1.1,3.6,3.3,3.6,1.4,0,2.7-.5,3.9-1.1,3.1-1.6,5.5-3.9,7.8-6.3.3-.1.4-.3.8-.2Z"/>
  <path id="path34" class="st1" d="M13.21,9.53c.2,0,.7.1,1.2.2,3.7.7,6-.6,7.2-4.1.8-2.3,2.5-3,4.7-1.8.1,0,.1.1.2.1,2.3,1.3,2.3,1.5.9,3.5-1.2,1.6-1.8,3.4-2.1,5.3-.2,1.1-.6,1.3-1.6.9-1.6-.6-3.3-.6-5,0-1.9.6-2.7,2.3-2.1,4.2.8,2.5,3,3.6,4.9,4.9s4.1,2,6.2,2.9c.3.1.8.1.7.6-.1.3-.5.3-.9.3-4.5.2-8.8-.5-12.3-3.5-3.3-2.7-5.7-6-5.3-10.6.3-1.5,1.4-2.6,3.3-2.9Z"/>
  <path id="path36" class="st0" d="M5.01,37.63c-2.4.3-4.8-1.7-5-4.2-.2-2.4,1.8-4.8,4.1-5,2.6-.3,5,1.5,5.2,3.9.1,2.3-1.4,5.1-4.3,5.3Z"/>
  <path id="path38" class="st3" d="M47.01,2.03c2.5-.2,4.9,1.8,5.1,4.3.2,2.4-1.8,4.7-4.2,4.9-2.6.2-4.9-1.7-5.1-4.2-.2-2.5,1.6-4.8,4.2-5Z"/>
  <path id="path40" class="st1" d="M20.91,3.93c.3,2.6-1.5,4.8-4.2,5.2-2.3.3-4.7-1.6-5-3.8C11.41,2.43,13.01.33,15.71.03c2.5-.3,4.9,1.6,5.2,3.9Z"/>
</svg>