<?xml version="1.0" encoding="UTF-8"?>
<svg id="layer" xmlns="http://www.w3.org/2000/svg" version="1.1" viewBox="0 0 600 189.1">
  <!-- Generator: Adobe Illustrator 29.6.0, SVG Export Plug-In . SVG Version: 2.1.1 Build 207)  -->
  <defs>
    <style>
      .st0 {
        fill: #626467;
      }

      .st1 {
        fill: #f99d35;
      }
    </style>
  </defs>
  <path class="st0" d="M76.4,180l-6.5-.6c0-.3,2.5-30.8-12.4-63.5-14.3-31.3-30.8-38-31-38l1.2-3.1.5-3.2c1.3.2,31.9,5.1,62.6,18.8,30.6,13.7,45.2,24.2,45.9,24.7l-3.8,5.3c-.1-.1-14.8-10.7-44.7-24-11.6-5.2-23.3-9.1-33.3-11.9,7.3,4.3,15.6,9.8,24.3,16.7,28,22.3,39.6,58,40.1,59.5l-6.2,2c-.1-.4-11.6-35.3-38-56.4-9.6-7.6-18.7-13.5-26.4-17.9,4.8,6,10,14.1,14.9,24.8,15.5,34.4,12.9,65.5,12.8,66.8"/>
  <path class="st1" d="M37.5,74.2c0,5.3-4.3,9.7-9.7,9.7s-9.7-4.3-9.7-9.7,4.3-9.7,9.7-9.7,9.7,4.3,9.7,9.7"/>
  <path class="st0" d="M81.2,56.1c0,5.3-4.3,9.7-9.7,9.7s-9.7-4.3-9.7-9.7,4.3-9.7,9.7-9.7,9.7,4.3,9.7,9.7"/>
  <path class="st0" d="M124.6,74.4c0,5.3-4.3,9.7-9.7,9.7s-9.7-4.3-9.7-9.7,4.3-9.7,9.7-9.7c5.4,0,9.7,4.4,9.7,9.7"/>
  <path class="st0" d="M142.7,117.9c0,5.3-4.3,9.7-9.7,9.7s-9.7-4.3-9.7-9.7,4.3-9.7,9.7-9.7c5.4,0,9.7,4.3,9.7,9.7"/>
  <path class="st0" d="M124.6,161.3c0,5.3-4.3,9.7-9.7,9.7s-9.7-4.3-9.7-9.7,4.3-9.7,9.7-9.7,9.7,4.3,9.7,9.7"/>
  <path class="st0" d="M81.2,179.4c0,5.3-4.3,9.7-9.7,9.7s-9.7-4.3-9.7-9.7,4.3-9.7,9.7-9.7,9.7,4.3,9.7,9.7"/>
  <path class="st0" d="M37.5,161.5c0,5.3-4.3,9.7-9.7,9.7s-9.7-4.3-9.7-9.7,4.3-9.7,9.7-9.7c5.4.1,9.7,4.4,9.7,9.7"/>
  <path class="st0" d="M19.4,117.9c0,5.3-4.3,9.7-9.7,9.7S0,123.3,0,117.9s4.3-9.7,9.7-9.7c5.4,0,9.7,4.3,9.7,9.7"/>
  <path class="st0" d="M165.9,53.4h27.9v16.3c3-6.4,7-11.3,12-14.7,5-3.3,10.5-5,16.5-5,4.2,0,8.6,1.1,13.2,3.3l-10.1,28c-3.8-1.9-7-2.9-9.4-2.9-5,0-9.3,3.1-12.8,9.3-3.4,6.2-5.1,18.4-5.1,36.5l.1,6.3v52.5h-32.3V53.4"/>
  <path class="st0" d="M264.1,0c5.7,0,10.6,2.1,14.7,6.2,4.1,4.1,6.2,9.1,6.2,15s-2,10.8-6.1,14.9-8.9,6.1-14.5,6.1-10.8-2.1-14.9-6.2c-4.1-4.2-6.1-9.3-6.1-15.3s2-10.6,6.1-14.7c3.9-4,8.8-6,14.6-6M247.7,53.4h32.7v129.8h-32.7V53.4Z"/>
  <path class="st0" d="M405.9,53.4h32.4v129.8h-32.4v-13.7c-6.4,6-12.8,10.4-19.2,13.1-6.4,2.6-13.3,3.9-20.8,3.9-16.8,0-31.3-6.5-43.5-19.4-12.2-13-18.4-29.2-18.4-48.5s5.9-36.5,17.8-49.3c11.8-12.8,26.2-19.2,43.2-19.2,7.8,0,15.1,1.5,21.9,4.4s13.2,7.4,19,13.2v-14.3M371.6,80.1c-10.1,0-18.5,3.6-25.2,10.7s-10,16.2-10,27.3,3.4,20.4,10.1,27.7c6.8,7.2,15.2,10.9,25.2,10.9s18.8-3.5,25.5-10.6c6.8-7.2,10.1-16.5,10.1-28s-3.4-20.4-10.1-27.4c-6.7-7.1-15.2-10.6-25.6-10.6"/>
  <polygon class="st0" points="471.9 3.3 504.5 3.3 504.5 107 552.4 53.4 593.2 53.4 537.4 115.7 600 183.2 559.6 183.2 504.5 123.4 504.5 183.2 471.9 183.2 471.9 3.3"/>
</svg>